<svg width="36" height="36" viewBox="0 0 36 36" fill="none" xmlns="http://www.w3.org/2000/svg">
<path d="M26 13.7907L10 5.51892" stroke="#F9FAFA" stroke-width="3" stroke-linecap="round" stroke-linejoin="round"/>
<path d="M34 24.3098V11.5595C33.9994 11.0005 33.8348 10.4515 33.5227 9.96754C33.2107 9.48359 32.7622 9.08171 32.2222 8.80222L19.7778 2.42705C19.2373 2.14729 18.6241 2 18 2C17.3759 2 16.7627 2.14729 16.2222 2.42705L3.77778 8.80222C3.2378 9.08171 2.7893 9.48359 2.47726 9.96754C2.16523 10.4515 2.00064 11.0005 2 11.5595V24.3098C2.00064 24.8688 2.16523 25.4178 2.47726 25.9017C2.7893 26.3857 3.2378 26.7876 3.77778 27.0671L16.2222 33.4422C16.7627 33.722 17.3759 33.8693 18 33.8693C18.6241 33.8693 19.2373 33.722 19.7778 33.4422L32.2222 27.0671C32.7622 26.7876 33.2107 26.3857 33.5227 25.9017C33.8348 25.4178 33.9994 24.8688 34 24.3098Z" stroke="#F9FAFA" stroke-width="3" stroke-linecap="round" stroke-linejoin="round"/>
<path d="M2.48004 9.90186L18 17.9505L33.52 9.90186" stroke="#F9FAFA" stroke-width="3" stroke-linecap="round" stroke-linejoin="round"/>
<path d="M18 34V17.9346" stroke="#F9FAFA" stroke-width="3" stroke-linecap="round" stroke-linejoin="round"/>
</svg>
